# xmcd
#
# Track frame offsets:
#	150
#	8837
#	18701
#	28861
#	40231
#	50027
#	59703
#	68053
#	77655
#	85755
#	97291
#	109790
#
# Disc length: 1575 seconds
#
# Revision: 1
# Processed by: cddbd v1.5.2PL0 Copyright (c) Steve Scherf et al.
# Submitted via: audiograbber 1.83.01
#
DISCID=a306250c
DTITLE=Johnny Cash - The Magnificent
DYEAR=2010
DGENRE=Country
TTITLE0=Drink To Me
TTITLE1=The Man On The Hill
TTITLE2=Hank and Joe And Me
TTITLE3=Clementine
TTITLE4=The Great Speckled Bird
TTITLE5=Austin Prison
TTITLE6=I Want To Go Home
TTITLE7=The Caretaker
TTITLE8=Old Apache Squaw
TTITLE9=Don't Step On Mother's Roses
TTITLE10=My Grandfather's Clock
TTITLE11=It Could Be You
EXTD=
EXTT0=
EXTT1=
EXTT2=
EXTT3=
EXTT4=
EXTT5=
EXTT6=
EXTT7=
EXTT8=
EXTT9=
EXTT10=
EXTT11=
PLAYORDER=
